<?xml version="1.0" encoding="utf-8"?>
<!-- Generator: Adobe Illustrator 23.0.6, SVG Export Plug-In . SVG Version: 6.00 Build 0)  -->
<svg version="1.1" id="Capa_1" xmlns="http://www.w3.org/2000/svg" xmlns:xlink="http://www.w3.org/1999/xlink" x="0px" y="0px"
	 viewBox="0 0 93.5 93.5" style="enable-background:new 0 0 93.5 93.5;" xml:space="preserve">
<style type="text/css">
	.st0{fill:#FFFFFF;}
</style>
<g>
	<g>
		<path class="st0" d="M93.5,40.9c0-2.5-2-4.4-4.4-4.4H82c-0.7-2.5-1.8-5-3-7.3l5-5c0.8-0.8,1.3-2,1.3-3.1c0-1.2-0.5-2.3-1.3-3.1
			l-8.3-8.3c-1.6-1.6-4.7-1.6-6.3,0l-5,5c-2.3-1.3-4.8-2.3-7.3-3V4.4C57,2,55.1,0,52.6,0H40.9c-2.5,0-4.4,2-4.4,4.4v7.1
			c-2.5,0.7-5,1.8-7.3,3l-5-5c-1.7-1.7-4.6-1.7-6.3,0l-8.3,8.3c-1.7,1.7-1.7,4.6,0,6.3l5,5c-1.3,2.3-2.3,4.8-3,7.3H4.4
			c-2.5,0-4.4,2-4.4,4.4v11.7C0,55.1,2,57,4.4,57h7.1c0.7,2.5,1.8,5,3,7.3l-5,5c-0.8,0.8-1.3,2-1.3,3.1c0,1.2,0.5,2.3,1.3,3.1
			l8.3,8.3c1.6,1.6,4.7,1.6,6.3,0l5-5c2.3,1.3,4.8,2.3,7.3,3v7.1c0,2.5,2,4.4,4.4,4.4h11.7c2.5,0,4.4-2,4.4-4.4V82
			c2.5-0.7,5-1.8,7.3-3l5,5c1.7,1.7,4.6,1.7,6.3,0l8.3-8.3c1.7-1.7,1.7-4.6,0-6.3l-5-5c1.3-2.3,2.3-4.8,3-7.3h7.1
			c2.5,0,4.4-2,4.4-4.4L93.5,40.9L93.5,40.9z M62.9,46.8c0,8.9-7.3,16.2-16.2,16.2s-16.2-7.3-16.2-16.2s7.3-16.2,16.2-16.2
			C55.7,30.6,62.9,37.8,62.9,46.8z"/>
	</g>
</g>
</svg>
