<svg xmlns="http://www.w3.org/2000/svg" version="1.0" width="950pt" height="980pt" viewBox="0 0 950 980" preserveAspectRatio="xMidYMid meet"  xmlns:xlink="http://www.w3.org/1999/xlink"><rect id="svgEditorBackground" x="0" y="0" width="950" height="980" style="fill:none;stroke:none;"/>
<metadata>
Created by potrace 1.15, written by Peter Selinger 2001-2017
</metadata>
<g transform="translate(0.000000,980.000000) scale(0.100000,-0.100000)" fill="#000000" stroke="none">
<path d="M1351,9789c-235,-28,-475,-119,-686,-262c-123,-83,-314,-275,-394,-397c-158,-237,-238,-466,-261,-748c-13,-159,-13,-6805,0,-6964c32,-382,176,-695,445,-963c223,-224,462,-354,780,-427l100,-22l1970,-4c1418,-2,1998,0,2070,8c186,21,329,63,500,145c432,209,732,595,837,1079c20,92,22,129,23,411c0,345,-1,349,-73,489c-104,199,-341,329,-571,313c-253,-18,-455,-172,-543,-414c-19,-51,-22,-88,-27,-313c-6,-247,-8,-257,-33,-311c-32,-71,-86,-124,-157,-158l-56,-26l-1895,0c-1870,0,-1896,0,-1949,20c-69,25,-129,78,-166,146l-30,54l0,3455l0,3455l30,54c16,29,49,70,73,91c85,76,-82,70,2041,70l1906,0l51,-24c66,-31,120,-86,153,-155c25,-55,26,-62,32,-331c5,-252,8,-280,29,-339c30,-83,108,-199,173,-256c67,-59,192,-121,282,-140c274,-57,549,78,670,329c64,132,68,166,62,517c-4,265,-7,317,-26,404c-120,547,-498,971,-1020,1145c-238,80,-48,74,-2276,76c-1094,1,-2023,-2,-2064,-7Z" style="fill:#FFFFFF;"/>
<path d="M7253,7050c-130,-18,-262,-89,-360,-193c-179,-192,-212,-467,-86,-710c32,-62,75,-110,317,-354l279,-283l-1774,-2l-1774,-3l-55,-21c-163,-63,-263,-144,-345,-280c-57,-94,-79,-181,-79,-304c0,-121,17,-191,71,-290c72,-132,194,-239,334,-291l64,-24l1779,-3l1779,-2l-269,-273c-288,-292,-325,-339,-367,-472c-17,-55,-22,-93,-21,-180c0,-96,4,-121,30,-195c54,-153,154,-271,290,-342c99,-52,174,-71,279,-72c112,0,176,15,285,66l85,40l779,777c428,427,807,810,843,851c110,127,155,250,156,420c0,102,-19,174,-76,285c-39,77,-67,107,-846,888c-443,445,-834,829,-867,853c-133,95,-291,135,-451,114Z" style="fill:#FFFFFF;"/>
</g>
</svg>