<?xml version="1.0"?>
<svg xmlns="http://www.w3.org/2000/svg" id="Capa_1" enable-background="new 0 0 512 512" height="512px" viewBox="0 0 512 512" width="512px" class=""><g><path d="m271 170.617v-155.617c0-8.284-6.716-15-15-15s-15 6.716-15 15v155.617c4.949-.397 9.95-.607 15-.607s10.051.21 15 .607z" data-original="#000000" class="active-path" data-old_color="#000000" fill="#FFFFFF"/><path d="m256 200.01c-86.02 0-155.99 69.98-155.99 155.99 0 86.02 69.97 156 155.99 156s155.99-69.98 155.99-156c0-86.01-69.97-155.99-155.99-155.99zm0 252.99c-53.569 0-96.995-43.426-96.995-96.995s43.426-96.995 96.995-96.995 96.995 43.426 96.995 96.995-43.426 96.995-96.995 96.995z" data-original="#000000" class="active-path" data-old_color="#000000" fill="#FFFFFF"/></g> </svg>
