<?xml version="1.0" encoding="utf-8"?>
<!-- Generator: Adobe Illustrator 23.0.6, SVG Export Plug-In . SVG Version: 6.00 Build 0)  -->
<svg version="1.1" id="Capa_1" xmlns="http://www.w3.org/2000/svg" xmlns:xlink="http://www.w3.org/1999/xlink" x="0px" y="0px"
	 viewBox="0 0 392.2 392.2" style="enable-background:new 0 0 392.2 392.2;" xml:space="preserve">
<style type="text/css">
	.st0{fill:#FFFFFF;}
</style>
<g>
	<g>
		<g>
			<path class="st0" d="M368.6,18H23.6C10.6,18,0,28.5,0,41.5v309.1c0,13,10.6,23.6,23.6,23.6h345.1c13,0,23.6-10.6,23.6-23.6V41.5
				C392.2,28.5,381.6,18,368.6,18z M297.6,57.5c0-4.8,3.9-8.7,8.7-8.7h8.7c4.8,0,8.7,3.9,8.7,8.7v9.9c0,4.8-3.9,8.7-8.7,8.7h-8.7
				c-4.8,0-8.7-3.9-8.7-8.7V57.5z M257.1,57.5c0-4.8,3.9-8.7,8.7-8.7h8.7c4.8,0,8.7,3.9,8.7,8.7v9.9c0,4.8-3.9,8.7-8.7,8.7h-8.7
				c-4.8,0-8.7-3.9-8.7-8.7V57.5z M363.9,346H28.3V102.2h335.6V346L363.9,346z M364.1,67.4c0,4.8-3.9,8.7-8.7,8.7h-8.7
				c-4.8,0-8.7-3.9-8.7-8.7v-9.9c0-4.8,3.9-8.7,8.7-8.7h8.7c4.8,0,8.7,3.9,8.7,8.7V67.4z"/>
			<path class="st0" d="M84.2,233.3l63.1,29.3c1.6,0.8,3.4,1.1,5.2,1.1c2.3,0,4.6-0.7,6.6-1.9c3.5-2.3,5.7-6.1,5.7-10.3v-0.3
				c0-4.8-2.8-9.1-7.1-11.1l-39.5-18.3l39.5-18.3c4.3-2,7.1-6.4,7.1-11.1V192c0-4.2-2.1-8.1-5.7-10.3c-2-1.3-4.2-1.9-6.6-1.9
				c-1.8,0-3.6,0.4-5.2,1.1l-63.1,29.3c-4.3,2-7.1,6.4-7.1,11.1v0.9C77.1,226.9,79.9,231.3,84.2,233.3z"/>
			<path class="st0" d="M165.3,293c2.3,3.1,6,5,9.9,5h0.3c5.4,0,10-3.4,11.7-8.5l41.6-128.8c1.2-3.7,0.5-7.8-1.8-11
				c-2.3-3.1-6-5-9.9-5h-0.3c-5.4,0-10,3.4-11.7,8.5l-41.6,128.8C162.3,285.8,163,289.9,165.3,293z"/>
			<path class="st0" d="M227.5,192.3c0,4.7,2.8,9.1,7.1,11.1l39.5,18.3l-39.5,18.3c-4.3,2-7.1,6.4-7.1,11.1v0.3
				c0,4.2,2.1,8.1,5.7,10.3c2,1.3,4.3,1.9,6.6,1.9c1.8,0,3.5-0.4,5.2-1.1l63.1-29.3c4.3-2,7.1-6.4,7.1-11.1v-0.9
				c0-4.7-2.8-9.1-7.1-11.1l-63.1-29.3c-1.6-0.7-3.4-1.1-5.2-1.1c-2.4,0-4.6,0.7-6.6,1.9c-3.6,2.3-5.7,6.1-5.7,10.3L227.5,192.3
				L227.5,192.3L227.5,192.3z"/>
		</g>
	</g>
</g>
</svg>
