<?xml version="1.0" encoding="utf-8"?>
<!-- Generator: Adobe Illustrator 23.0.6, SVG Export Plug-In . SVG Version: 6.00 Build 0)  -->
<svg version="1.1" id="Capa_1" xmlns="http://www.w3.org/2000/svg" xmlns:xlink="http://www.w3.org/1999/xlink" x="0px" y="0px"
	 viewBox="0 0 64 64" style="enable-background:new 0 0 64 64;" xml:space="preserve">
<style type="text/css">
	.st0{fill:#FFFFFF;}
</style>
<path class="st0" d="M62,58.3L46.7,42.5c3.9-4.7,6.1-10.5,6.1-16.6C52.8,11.6,41.2,0,26.9,0S1.1,11.6,1.1,25.8s11.6,25.8,25.8,25.8
	c5.3,0,10.4-1.6,14.8-4.7l15.3,16c0.6,0.7,1.5,1,2.4,1c0.9,0,1.7-0.3,2.3-0.9C63.2,61.8,63.2,59.6,62,58.3z M26.9,6.7
	C37.5,6.7,46,15.3,46,25.8s-8.6,19.1-19.1,19.1S7.8,36.4,7.8,25.8S16.4,6.7,26.9,6.7z"/>
</svg>
