<?xml version="1.0"?>
<svg xmlns="http://www.w3.org/2000/svg" xmlns:xlink="http://www.w3.org/1999/xlink" version="1.1" id="Capa_1" x="0px" y="0px" viewBox="0 0 512 512" style="enable-background:new 0 0 512 512;" xml:space="preserve" width="512px" height="512px" class=""><g><g>
	<g>
		<g>
			<path d="M298.667,224c-5.885,0-10.667,4.781-10.667,10.667v42.667c0,5.885,4.781,10.667,10.667,10.667     c5.885,0,10.667-4.781,10.667-10.667v-42.667C309.333,228.781,304.552,224,298.667,224z" data-original="#000000" class="active-path" data-old_color="#000000" fill="#FFFFFF"/>
			<path d="M384,224h-10.667v21.333H384c5.885,0,10.667-4.781,10.667-10.667C394.667,228.781,389.885,224,384,224z" data-original="#000000" class="active-path" data-old_color="#000000" fill="#FFFFFF"/>
			<path d="M496.375,139.958L372.042,15.625C361.969,5.552,348.573,0,334.323,0H177.677c-14.25,0-27.646,5.552-37.719,15.625     L15.625,139.958C5.552,150.031,0,163.427,0,177.677v156.646c0,14.25,5.552,27.646,15.625,37.719l124.333,124.333     C150.031,506.448,163.427,512,177.677,512h156.646c14.25,0,27.646-5.552,37.719-15.625l124.333-124.333     C506.448,361.969,512,348.573,512,334.323V177.677C512,163.427,506.448,150.031,496.375,139.958z M128,245.333     c17.646,0,32,14.354,32,32c0,17.646-14.354,32-32,32h-21.333c-5.896,0-10.667-4.771-10.667-10.667     c0-5.896,4.771-10.667,10.667-10.667H128c5.885,0,10.667-4.781,10.667-10.667c0-5.885-4.781-10.667-10.667-10.667     c-17.646,0-32-14.354-32-32c0-17.646,14.354-32,32-32h21.333c5.896,0,10.667,4.771,10.667,10.667     c0,5.896-4.771,10.667-10.667,10.667H128c-5.885,0-10.667,4.781-10.667,10.667C117.333,240.552,122.115,245.333,128,245.333z      M245.333,224H224v74.667c0,5.896-4.771,10.667-10.667,10.667c-5.896,0-10.667-4.771-10.667-10.667V224h-21.333     c-5.896,0-10.667-4.771-10.667-10.667c0-5.896,4.771-10.667,10.667-10.667h64c5.896,0,10.667,4.771,10.667,10.667     C256,219.229,251.229,224,245.333,224z M330.667,277.333c0,17.646-14.354,32-32,32c-17.646,0-32-14.354-32-32v-42.667     c0-17.646,14.354-32,32-32c17.646,0,32,14.354,32,32V277.333z M384,266.667h-10.667v32c0,5.896-4.771,10.667-10.667,10.667     S352,304.563,352,298.667v-85.333c0-5.896,4.771-10.667,10.667-10.667H384c17.646,0,32,14.354,32,32     C416,252.313,401.646,266.667,384,266.667z" data-original="#000000" class="active-path" data-old_color="#000000" fill="#FFFFFF"/>
		</g>
	</g>
</g></g> </svg>
