<svg height="368pt" viewBox="0 0 368 368.16" width="368pt" xmlns="http://www.w3.org/2000/svg"><path d="m231.761719 264h.316406v-127.839844h-128.316406c.078125 70.640625 57.359375 127.839844 128 127.839844zm0 0" fill="#cce4ff"/><path d="m232.078125 368.160156c4.417969 0 8-3.574218 8-8v-88.585937c71.082031-4.328125 127.683594-63.445313 127.683594-135.574219 0-74.992188-61.007813-136-136-136-72.296875 0-131.425781 56.742188-135.59375 128.160156h-88.089844c-4.414063 0-8 3.574219-8 8v224c0 4.425782 3.585937 8 8 8zm-8-112.542968c-59.804687-3.816407-107.78125-51.59375-111.894531-111.457032h111.894531zm7.683594-239.617188c66.167969 0 120 53.832031 120 120 0 63.3125-49.417969 115.273438-111.683594 119.574219v-119.414063c0-4.425781-3.582031-8-8-8h-119.917969c4.070313-62.511718 56.078125-112.160156 119.601563-112.160156zm-215.683594 128.160156h80.097656c4.105469 68.617188 59.238281 123.582032 127.902344 127.457032v80.542968h-208zm0 0" fill="#007aff"/></svg>