<svg height="368.48pt" viewBox="0 0 368.48 368.48" width="368.48pt" xmlns="http://www.w3.org/2000/svg"><g fill="#cce4ff"><path d="m184.238281 296.238281v64.242188h176.242188v-176.242188h-64.242188c0 61.839844-50.160156 112-112 112zm0 0"/><path d="m296.238281 184.238281c0-61.839843-50.160156-112-112-112v112zm0 0"/><path d="m72.238281 184.238281c0 61.839844 50.160157 112 112 112v-112zm0 0"/><path d="m184.238281 72.238281v-64.238281h-176.238281v176.238281h64.238281c0-61.839843 50.160157-112 112-112zm0 0"/></g><path d="m360.480469 0h-352.480469c-4.425781 0-8 3.574219-8 8v352.480469c0 4.421875 3.574219 8 8 8h352.480469c4.421875 0 8-3.578125 8-8v-352.480469c0-4.425781-3.578125-8-8-8zm-8 176.238281h-48.648438c-3.96875-59.78125-51.808593-107.621093-111.59375-111.589843v-48.648438h160.242188zm-176.242188 0h-95.589843c3.902343-50.957031 44.632812-91.6875 95.589843-95.589843zm0 16v95.59375c-50.957031-3.902343-91.6875-44.632812-95.589843-95.59375zm16 0h95.59375c-3.902343 50.960938-44.632812 91.691407-95.59375 95.59375zm0-16v-95.589843c50.960938 3.902343 91.691407 44.632812 95.59375 95.589843zm-16-160.238281v48.648438c-59.78125 3.96875-107.621093 51.808593-111.589843 111.589843h-48.648438v-160.238281zm-160.238281 176.238281h48.648438c3.96875 59.785157 51.808593 107.625 111.589843 111.59375v48.648438h-160.238281zm176.238281 160.242188v-48.648438c59.785157-3.96875 107.625-51.808593 111.59375-111.59375h48.648438v160.242188zm0 0" fill="#007aff"/></svg>