<svg height="368pt" viewBox="0 0 368 368" width="368pt" xmlns="http://www.w3.org/2000/svg"><g fill="#cce4ff"><path d="m8 232v32l96 96h32l-32-96zm0 0"/><path d="m232 360h32l96-96v-32l-96 32zm0 0"/><path d="m232 8 32 96 96 32v-32l-96-96zm0 0"/><path d="m8 104v32l96-32 32-96h-32zm0 0"/></g><path d="m269.65625 2.34375c-1.496094-1.503906-3.527344-2.34375-5.65625-2.34375h-160c-2.128906 0-4.160156.839844-5.65625 2.34375l-96 96c-1.503906 1.496094-2.34375 3.527344-2.34375 5.65625v160c0 2.128906.839844 4.160156 2.34375 5.65625l96 96c1.496094 1.503906 3.527344 2.34375 5.65625 2.34375h160c2.128906 0 4.160156-.839844 5.65625-2.34375l96-96c1.503906-1.496094 2.34375-3.527344 2.34375-5.65625v-160c0-2.128906-.839844-4.160156-2.34375-5.65625zm-127.894531 349.65625-26.664063-80h137.796875l-26.65625 80zm-125.761719-125.761719v-84.476562l80-26.664063v137.796875zm210.238281-210.238281 26.664063 80h-137.804688l26.664063-80zm-114.238281 240v-144h144v144zm160-140.902344 80 26.664063v84.476562l-80 26.664063zm80-7.785156v17.589844l-81.679688-27.222656-27.222656-81.679688h17.589844zm-244.6875-91.3125h17.589844l-27.222656 81.679688-81.679688 27.222656v-17.589844zm-91.3125 244.6875v-17.589844l81.679688 27.222656 27.222656 81.679688h-17.589844zm244.6875 91.3125h-17.589844l27.222656-81.679688 81.679688-27.222656v17.589844zm0 0" fill="#007aff"/></svg>