<svg height="368pt" viewBox="0 0 368 368" width="368pt" xmlns="http://www.w3.org/2000/svg"><g fill="#cce4ff"><path d="m14.160156 302.71875c-.398437 1.921875-.878906 3.921875-1.359375 6-.960937 4.480469-1.839843 9.28125-2.480469 14.480469-.398437 2.5625-.71875 5.28125-.960937 8.082031-.558594 5.597656-.960937 11.679688-1.199219 18.320312-.082031 1.679688-.082031 3.359376-.082031 5.117188-.078125 1.761719-.078125 3.519531-.078125 5.28125 1.761719 0 3.519531 0 5.28125-.078125 1.757812 0 3.4375 0 5.117188-.082031 6.640624-.238282 12.722656-.640625 18.320312-1.199219 2.800781-.242187 5.519531-.5625 8.082031-.960937 5.199219-.640626 10-1.519532 14.480469-2.480469 2.078125-.480469 4.078125-.960938 6-1.359375 2.320312-.558594 4.640625-1.199219 6.796875-1.839844.722656-31.039062 5.683594-50.480469 11.523437-67.601562-17.121093 5.839843-36.5625 10.800781-67.601562 11.523437-.640625 2.15625-1.28125 4.476563-1.839844 6.796875zm0 0"/><path d="m302.71875 353.839844c1.921875.398437 3.921875.878906 6 1.359375 4.480469.960937 9.28125 1.839843 14.480469 2.480469 2.5625.398437 5.28125.71875 8.082031.960937 5.597656.558594 11.679688.960937 18.320312 1.199219 1.679688.082031 3.359376.082031 5.117188.082031 1.761719.078125 3.519531.078125 5.28125.078125 0-1.761719 0-3.519531-.078125-5.28125 0-1.757812 0-3.4375-.082031-5.117188-.238282-6.640624-.640625-12.722656-1.199219-18.320312-.242187-2.800781-.5625-5.519531-.960937-8.082031-.640626-5.199219-1.519532-10-2.480469-14.480469-.480469-2.078125-.960938-4.078125-1.359375-6-.558594-2.320312-1.199219-4.640625-1.839844-6.796875-31.039062-.722656-50.480469-5.683594-67.601562-11.523437 5.839843 17.121093 10.800781 36.5625 11.523437 67.601562 2.15625.640625 4.476563 1.28125 6.796875 1.839844zm0 0"/><path d="m353.839844 65.28125c.398437-1.921875.878906-3.921875 1.359375-6 .960937-4.480469 1.839843-9.28125 2.480469-14.480469.398437-2.5625.71875-5.28125.960937-8.082031.558594-5.597656.960937-11.679688 1.199219-18.320312.082031-1.679688.082031-3.359376.082031-5.117188.078125-1.761719.078125-3.519531.078125-5.28125-1.761719 0-3.519531 0-5.28125.078125-1.757812 0-3.4375 0-5.117188.082031-6.640624.238282-12.722656.640625-18.320312 1.199219-2.800781.242187-5.519531.5625-8.082031.960937-5.199219.640626-10 1.519532-14.480469 2.480469-2.078125.480469-4.078125.960938-6 1.359375-2.320312.558594-4.640625 1.199219-6.796875 1.839844-.722656 31.039062-5.683594 50.480469-11.523437 67.601562 17.121093-5.839843 36.5625-10.800781 67.601562-11.523437.640625-2.15625 1.28125-4.476563 1.839844-6.796875zm0 0"/><path d="m65.28125 14.160156c-1.921875-.398437-3.921875-.878906-6-1.359375-4.480469-.960937-9.28125-1.839843-14.480469-2.480469-2.5625-.398437-5.28125-.71875-8.082031-.960937-5.597656-.558594-11.679688-.960937-18.320312-1.199219-1.679688-.082031-3.359376-.082031-5.117188-.082031-1.761719-.078125-3.519531-.078125-5.28125-.078125 0 1.761719 0 3.519531.078125 5.28125 0 1.757812 0 3.4375.082031 5.117188.238282 6.640624.640625 12.722656 1.199219 18.320312.242187 2.800781.5625 5.519531.960937 8.082031.640626 5.199219 1.519532 10 2.480469 14.480469.480469 2.078125.960938 4.078125 1.359375 6 .558594 2.320312 1.199219 4.640625 1.839844 6.796875 31.039062.722656 50.480469 5.683594 67.601562 11.523437-5.839843-17.121093-10.800781-36.5625-11.523437-67.601562-2.15625-.640625-4.476563-1.28125-6.796875-1.839844zm0 0"/><path d="m184 104c-52.160156 0-73.441406-11.28125-100.398438-20.398438 9.117188 26.957032 20.398438 48.238282 20.398438 100.398438s-11.28125 73.441406-20.398438 100.398438c26.957032-9.117188 48.238282-20.398438 100.398438-20.398438s73.441406 11.28125 100.398438 20.398438c-9.117188-26.957032-20.398438-48.238282-20.398438-100.398438s11.28125-73.441406 20.398438-100.398438c-26.957032 9.117188-48.238282 20.398438-100.398438 20.398438zm0 0"/></g><path d="m360 0c-1.871094 0-3.761719 0-5.28125.078125-1.878906 0-3.6875 0-5.496094.089844-.007812 0-.015625.007812-.023437.007812-6.832031.25-12.953125.65625-18.605469 1.222657-2.992188.257812-5.898438.601562-8.371094.992187-.007812 0-.015625 0-.023437 0-.070313.007813-.160157.007813-.230469.023437-.007812 0-.015625.011719-.03125.011719-4.738281.589844-9.464844 1.390625-14.753906 2.519531-.09375.015626-.175782.039063-.273438.0625 0 0 0 0-.007812 0l-.925782.207032c-1.679687.402344-3.3125.785156-4.878906 1.105468-.007812 0-.019531.007813-.027344.007813-.070312.015625-.160156.03125-.238281.054687-2.457031.59375-4.910156 1.273438-7.097656 1.921876-8.910156 2.519531-16.878906 5.414062-24.582031 8.207031-21.9375 7.96875-42.65625 15.488281-85.152344 15.488281s-63.214844-7.519531-85.160156-15.488281c-7.703125-2.800781-15.671875-5.6875-24.488282-8.183594-2.273437-.671875-4.734374-1.351563-7.152343-1.9375-.09375-.023437-.191407-.039063-.277344-.0625-.011719 0-.011719-.007813-.019531-.007813-.566406-.121093-1.183594-.273437-1.765625-.398437-1.402344-.335937-2.792969-.683594-4.191407-.953125-5.519531-1.167969-10.34375-1.992188-14.914062-2.554688-2.726562-.421874-5.632812-.765624-8.511719-1.015624-5.800781-.574219-11.953125-.984376-18.742187-1.230469-1.738282-.0703128-3.472656-.0781252-4.945313-.0781252-.183593 0-.359375-.0117188-.550781-.0117188h-.007812c-1.761719-.0703125-3.519532-.078125-5.273438-.078125-4.425781 0-8 3.574219-8 8 0 1.871094 0 3.761719.078125 5.28125 0 1.878906 0 3.6875.089844 5.496094 0 .007812.007812.015625.007812.023437.25 6.832031.65625 12.953125 1.222657 18.605469.257812 2.992188.601562 5.898438.992187 8.371094v.023437c.007813.070313.015625.160157.023437.230469 0 .007812.011719.023438.011719.03125.589844 4.730469 1.390625 9.464844 2.519531 14.753906.015626.09375.039063.175782.0625.273438v.007812l.207032.925782c.402344 1.679687.785156 3.3125 1.105468 4.878906 0 .007812.007813.019531.007813.027344.015625.070312.03125.160156.054687.230468.59375 2.457032 1.273438 4.910156 1.921876 7.097656 2.519531 8.910157 5.414062 16.878907 8.207031 24.582032 7.96875 21.945312 15.488281 42.664062 15.488281 85.160156s-7.519531 63.214844-15.488281 85.160156c-2.800781 7.703125-5.6875 15.671875-8.183594 24.488282-.671875 2.273437-1.351563 4.734374-1.9375 7.152343-.023437.09375-.039063.191407-.0625.277344 0 .011719-.007813.011719-.007813.019531-.121093.566406-.273437 1.183594-.398437 1.765625-.335937 1.402344-.683594 2.792969-.953125 4.191407-1.167969 5.519531-1.992188 10.34375-2.554688 14.914062-.421874 2.726562-.765624 5.632812-1.015624 8.511719-.574219 5.800781-.984376 11.953125-1.230469 18.742187-.089844 1.808594-.089844 3.609375-.089844 5.496094v.007812c-.0703125 1.761719-.078125 3.519532-.078125 5.273438 0 4.425781 3.574219 8 8 8 1.871094 0 3.761719 0 5.28125-.078125 1.878906 0 3.6875 0 5.496094-.089844.007812 0 .015625-.007812.023437-.007812 6.832031-.25 12.953125-.65625 18.605469-1.222657 2.992188-.257812 5.898438-.601562 8.371094-.992187h.023437c.070313-.007813.160157-.015625.230469-.023437.007812 0 .015625-.011719.03125-.011719 4.738281-.589844 9.464844-1.390625 14.753906-2.519531.09375-.015626.175782-.039063.273438-.0625h.007812l.925782-.207032c1.679687-.402344 3.3125-.785156 4.878906-1.105468.007812 0 .019531-.007813.027344-.007813.070312-.015625.160156-.03125.238281-.054687 2.457031-.59375 4.910156-1.273438 7.097656-1.921876 8.910156-2.519531 16.878906-5.414062 24.582031-8.207031 21.9375-7.96875 42.65625-15.488281 85.152344-15.488281s63.214844 7.519531 85.160156 15.488281c7.703125 2.800781 15.671875 5.6875 24.488282 8.183594 2.28125.671875 4.742187 1.351563 7.160156 1.9375.09375.023437.191406.039063.28125.0625.007812 0 .007812.007813.015625.007813.566406.121093 1.183593.273437 1.765625.398437 1.402344.335937 2.792968.683594 4.191406.953125 5.523438 1.167969 10.34375 1.992188 14.914062 2.554688 2.726563.421874 5.632813.765624 8.511719 1.015624 5.800781.574219 11.953125.984376 18.742188 1.230469 1.808593.089844 3.609375.089844 5.496093.089844h.007813c1.753906.070313 3.511719.078125 5.265625.078125 4.425781 0 8-3.574219 8-8 0-1.816406 0-3.640625-.078125-5.457031 0-1.214844-.035156-2.34375-.058594-3.488281-.015625-.605469 0-1.230469-.03125-1.832032 0-.007812-.007812-.015625-.007812-.023437-.25-6.832031-.65625-12.953125-1.222657-18.605469-.257812-2.992188-.601562-5.898438-.992187-8.371094 0-.007812 0-.015625 0-.023437-.007813-.070313-.015625-.160157-.023437-.230469 0-.007812-.011719-.015625-.011719-.03125-.589844-4.738281-1.390625-9.464844-2.519531-14.753906-.015626-.09375-.039063-.175782-.0625-.273438 0 0 0 0 0-.007812l-.207032-.925782c-.402344-1.679687-.785156-3.3125-1.105468-4.878906 0-.007812-.007813-.019531-.007813-.027344-.015625-.070312-.03125-.160156-.054687-.238281-.59375-2.457031-1.273438-4.910156-1.921876-7.097656-2.519531-8.910156-5.414062-16.878906-8.207031-24.582031-7.96875-21.9375-15.488281-42.65625-15.488281-85.152344s7.519531-63.214844 15.488281-85.160156c2.800781-7.703125 5.6875-15.671875 8.183594-24.488282.671875-2.28125 1.351563-4.742187 1.9375-7.160156.023437-.085937.039063-.191406.0625-.28125 0 0 .007813-.007812.007813-.015625.121093-.566406.273437-1.183593.398437-1.765625.335937-1.402344.683594-2.792968.953125-4.191406 1.167969-5.523438 1.992188-10.34375 2.554688-14.914062.421874-2.726563.765624-5.632813 1.015624-8.511719.574219-5.800781.984376-11.953125 1.230469-18.742188.089844-1.808593.089844-3.609375.089844-5.496093v-.007813c.070313-1.753906.078125-3.511719.078125-5.265625 0-4.425781-3.574219-8-8-8zm-14.175781 303.703125c.070312.296875.160156.570313.230469.863281.34375 1.632813.738281 3.3125 1.136718 5.050782l.121094.503906c.015625.09375.039062.167968.054688.261718 1.082031 5.058594 1.832031 9.441407 2.402343 14.058594.375 2.382813.671875 4.910156.902344 7.636719.542969 5.464844.929687 11.289063 1.167969 17.898437.03125.625.015625 1.269532.03125 1.902344-.625-.007812-1.277344 0-1.902344-.03125-.007812 0-.007812 0-.015625 0-.023437 0-.050781 0-.074219 0-6.519531-.238281-12.351562-.625-17.917968-1.175781-2.617188-.222656-5.152344-.519531-7.792969-.929687-4.328125-.535157-8.6875-1.277344-13.824219-2.367188l-.734375-.175781c-1.761719-.40625-3.464844-.808594-5.113281-1.152344-.273438-.0625-.535156-.152344-.808594-.214844-.886719-20.886719-3.695312-36.441406-7.191406-49.320312 12.886718 3.496093 28.441406 6.304687 49.328125 7.191406zm-287.441407 43.488281-.503906.121094c-.09375.015625-.167968.039062-.261718.054688-5.058594 1.082031-9.441407 1.832031-14.058594 2.402343-2.382813.375-4.910156.671875-7.636719.902344-5.464844.542969-11.289063.929687-17.898437 1.167969-.625.03125-1.269532.023437-1.902344.03125.007812-.632813 0-1.277344.03125-1.902344 0 0 0-.007812 0-.015625 0-.023437 0-.050781 0-.074219.238281-6.519531.625-12.351562 1.175781-17.917968.222656-2.617188.519531-5.152344.929687-7.792969.535157-4.328125 1.277344-8.6875 2.367188-13.824219l.175781-.734375c.40625-1.761719.808594-3.464844 1.152344-5.113281.0625-.273438.152344-.535156.214844-.808594 20.886719-.886719 36.441406-3.695312 49.320312-7.191406-3.496093 12.878906-6.304687 28.425781-7.191406 49.3125-.296875.070312-.570313.160156-.863281.230468-1.625.359376-3.3125.753907-5.050782 1.152344zm-36.207031-282.894531c-.070312-.296875-.160156-.570313-.230469-.863281-.34375-1.632813-.738281-3.3125-1.136718-5.050782l-.121094-.503906c-.015625-.09375-.039062-.167968-.054688-.261718-1.082031-5.058594-1.832031-9.441407-2.402343-14.058594-.375-2.382813-.671875-4.910156-.902344-7.636719-.542969-5.464844-.929687-11.289063-1.167969-17.898437-.03125-.625-.015625-1.269532-.03125-1.902344.632813.007812 1.277344 0 1.902344.03125h.144531c6.496094.238281 12.3125.625 17.863281 1.175781 2.617188.222656 5.152344.519531 7.792969.929687 4.328125.535157 8.6875 1.277344 13.824219 2.367188l.734375.175781c1.761719.40625 3.464844.808594 5.113281 1.152344.273438.0625.535156.152344.808594.214844.886719 20.886719 3.695312 36.441406 7.191406 49.320312-12.886718-3.496093-28.441406-6.304687-49.328125-7.191406zm153.824219 111.703125h-64.097656c-.871094-37.929688-7.925782-59.304688-15.117188-79.214844 19.910156 7.191406 41.277344 14.246094 79.214844 15.117188zm0 16v64.097656c-37.929688.871094-59.304688 7.925782-79.214844 15.117188 7.191406-19.910156 14.246094-41.277344 15.117188-79.214844zm16 0h64.097656c.871094 37.929688 7.925782 59.304688 15.117188 79.214844-19.910156-7.191406-41.277344-14.246094-79.214844-15.117188zm0-16v-64.097656c37.929688-.871094 59.304688-7.925782 79.214844-15.117188-7.191406 19.910156-14.246094 41.277344-15.117188 79.214844zm111.703125-153.824219c.296875-.070312.570313-.160156.863281-.230469 1.632813-.34375 3.3125-.738281 5.050782-1.136718l.503906-.121094c.09375-.015625.167968-.039062.261718-.054688 5.058594-1.082031 9.441407-1.832031 14.058594-2.402343 2.382813-.375 4.910156-.671875 7.636719-.902344 5.464844-.542969 11.289063-.929687 17.898437-1.167969.625-.03125 1.269532-.023437 1.902344-.03125-.007812.632813 0 1.277344-.03125 1.902344v.015625.074219c-.238281 6.519531-.625 12.351562-1.175781 17.917968-.222656 2.617188-.519531 5.152344-.929687 7.792969-.535157 4.328125-1.277344 8.6875-2.367188 13.824219l-.175781.734375c-.40625 1.761719-.808594 3.464844-1.152344 5.113281-.0625.273438-.152344.535156-.214844.808594-20.886719.886719-36.441406 3.695312-49.320312 7.191406 3.496093-12.886718 6.304687-28.441406 7.191406-49.328125zm-29.085937 9.375c4.304687-1.558593 8.519531-3.054687 12.824218-4.503906-1.394531 22.210937-5.21875 37.441406-9.417968 50.320313-2.976563 1.039062-5.945313 2.082031-8.871094 3.144531-20.511719 7.441406-39.96875 14.503906-77.160156 15.390625v-48c40.097656-.917969 61.703124-8.75 82.625-16.351563zm-98.617188 16.351563v48c-37.183594-.886719-56.640625-7.941406-77.160156-15.390625-2.917969-1.0625-5.894532-2.105469-8.871094-3.144531-4.199219-12.878907-8.023438-28.109376-9.417969-50.320313 4.289063 1.449219 8.511719 2.945313 12.824219 4.503906 20.929688 7.601563 42.535156 15.433594 82.625 16.351563zm-144.449219 45.480468c-1.558593-4.304687-3.054687-8.519531-4.503906-12.824218 22.210937 1.394531 37.441406 5.21875 50.320313 9.417968 1.039062 2.976563 2.082031 5.945313 3.144531 8.871094 7.441406 20.511719 14.503906 39.96875 15.390625 77.160156h-48c-.917969-40.097656-8.75-61.703124-16.351563-82.625zm16.351563 98.617188h48c-.886719 37.183594-7.941406 56.640625-15.390625 77.160156-1.0625 2.917969-2.105469 5.894532-3.144531 8.871094-12.878907 4.199219-28.109376 8.023438-50.320313 9.417969 1.449219-4.289063 2.945313-8.511719 4.503906-12.824219 7.601563-20.929688 15.433594-42.535156 16.351563-82.625zm45.480468 144.449219c-4.304687 1.558593-8.519531 3.054687-12.824218 4.503906 1.394531-22.210937 5.21875-37.441406 9.417968-50.320313 2.976563-1.039062 5.945313-2.082031 8.871094-3.144531 20.511719-7.441406 39.96875-14.503906 77.160156-15.390625v48c-40.097656.917969-61.703124 8.75-82.625 16.351563zm98.617188-16.351563v-48c37.183594.886719 56.640625 7.941406 77.160156 15.390625 2.917969 1.0625 5.894532 2.105469 8.871094 3.144531 4.199219 12.878907 8.023438 28.109376 9.417969 50.320313-4.289063-1.449219-8.511719-2.945313-12.824219-4.503906-20.929688-7.601563-42.535156-15.433594-82.625-16.351563zm144.449219-45.480468c1.558593 4.304687 3.054687 8.519531 4.503906 12.824218-22.210937-1.394531-37.441406-5.21875-50.320313-9.417968-1.039062-2.976563-2.082031-5.945313-3.144531-8.871094-7.441406-20.511719-14.503906-39.96875-15.390625-77.160156h48c.917969 40.097656 8.75 61.703124 16.351563 82.625zm-16.351563-98.617188h-48c.886719-37.183594 7.941406-56.640625 15.390625-77.160156 1.0625-2.917969 2.105469-5.894532 3.144531-8.871094 12.878907-4.199219 28.109376-8.023438 50.320313-9.417969-1.449219 4.289063-2.945313 8.511719-4.503906 12.824219-7.601563 20.929688-15.433594 42.535156-16.351563 82.625zm0 0" fill="#007aff"/></svg>