<svg height="368pt" viewBox="0 0 368 368" width="368pt" xmlns="http://www.w3.org/2000/svg"><path d="m168 200v160l192-192v-160zm0 0" fill="#cce4ff"/><path d="m56 248h64v64h-64zm0 0" fill="#cce4ff"/><g fill="#007aff"><path d="m363.054688.617188c-.976563-.410157-2.015626-.617188-3.054688-.617188h-160c-1.039062 0-2.078125.207031-3.054688.617188-.984374.40625-1.867187.992187-2.609374 1.734374l-95.984376 95.984376c-.007812.007812-.007812.007812-.015624.015624l-95.984376 95.984376c-.742187.734374-1.328124 1.625-1.734374 2.609374-.402344.976563-.617188 2.015626-.617188 3.054688v160c0 4.425781 3.585938 8 8 8h160c1.039062 0 2.078125-.214844 3.054688-.617188.984374-.40625 1.867187-.992187 2.609374-1.734374l95.984376-95.984376.015624-.015624 95.984376-95.984376c.742187-.734374 1.328124-1.625 1.734374-2.609374.402344-.976563.617188-2.015626.617188-3.054688v-160c0-1.039062-.214844-2.078125-.617188-3.054688-.808593-1.960937-2.367187-3.519531-4.328124-4.328124zm-11.054688 164.070312-80 80v-137.375l80-80zm-244.6875-52.6875h137.375l-80 80h-137.375zm96-96h137.375l-80 80h-137.375zm-27.3125 187.3125 80-80v137.375l-80 80zm-160 4.6875h144v144h-144zm0 0"/><path d="m120 240h-64c-4.414062 0-8 3.574219-8 8v64c0 4.425781 3.585938 8 8 8h64c4.414062 0 8-3.574219 8-8v-64c0-4.425781-3.585938-8-8-8zm-8 64h-48v-48h48zm0 0"/></g></svg>