<svg height="368pt" viewBox="0 0 368 368" width="368pt" xmlns="http://www.w3.org/2000/svg"><path d="m8 295.738281v16c0-26.480469 78.800781-48 176-48s176 21.519531 176 48v-16l-176-288zm0 0" fill="#cce4ff"/><path d="m190.832031 3.570312c-2.902343-4.761718-10.753906-4.761718-13.65625 0l-176 288c-.769531 1.253907-1.175781 2.695313-1.175781 4.167969v16c0 36.769531 92.558594 56 184 56s184-19.230469 184-56v-16c0-1.472656-.40625-2.914062-1.167969-4.167969zm-6.832031 19.511719 157.976562 258.503907c-33.90625-17.046876-96.175781-25.847657-157.976562-25.847657s-124.070312 8.800781-157.976562 25.847657zm0 328.65625c-102.550781 0-168-23.6875-168-40s65.449219-40 168-40 168 23.6875 168 40-65.449219 40-168 40zm0 0" fill="#007aff"/></svg>