<svg height="368pt" viewBox="0 0 368 368" width="368pt" xmlns="http://www.w3.org/2000/svg"><path d="m72 296-64 64h288l64-64v-288h-288l-64 64h288v224zm0 0" fill="#cce4ff"/><path d="m4.945312 367.382812c.976563.402344 2.015626.617188 3.054688.617188h288c1.039062 0 2.078125-.214844 3.054688-.617188.984374-.40625 1.867187-.992187 2.609374-1.734374l63.992188-63.992188c1.503906-1.496094 2.34375-3.535156 2.34375-5.65625v-288c0-.105469-.054688-.183594-.054688-.289062-.035156-.933594-.175781-1.871094-.554687-2.773438 0-.007812-.007813-.015625-.015625-.027344-.03125-.070312-.085938-.125-.117188-.199218-.363281-.800782-.851562-1.496094-1.433593-2.117188-.191407-.210938-.398438-.371094-.609375-.554688-.511719-.445312-1.054688-.816406-1.664063-1.117187-.246093-.121094-.488281-.257813-.757812-.363281-.882813-.328125-1.808594-.558594-2.792969-.558594h-288c-2.128906 0-4.160156.839844-5.65625 2.34375l-63.992188 63.992188c-.742187.734374-1.328124 1.625-1.734374 2.609374-.402344.976563-.617188 2.015626-.617188 3.054688v288c0 1.039062.214844 2.078125.617188 3.054688.808593 1.960937 2.367187 3.519531 4.328124 4.328124zm11.054688-287.382812h48v212.6875l-48 48zm272 0v208h-208v-208zm-212.6875 224h212.6875v48h-260.6875zm228.6875 36.6875v-265.375l48-48v265.375zm-228.6875-324.6875h265.375l-48 48h-265.375zm0 0" fill="#007aff"/></svg>