<svg height="368pt" viewBox="0 0 368 368" width="368pt" xmlns="http://www.w3.org/2000/svg"><path d="m184 71.976562-106.160156 47.757813-5.839844-2.636719v130.878906l112 48.480469 112-48.480469.078125-130.960937-5.917969 2.71875zm0 0" fill="#cce4ff"/><path d="m367.105469 84.464844c-.3125-.632813-.707031-1.207032-1.167969-1.738282-.160156-.183593-.289062-.375-.464844-.535156-.632812-.597656-1.335937-1.128906-2.160156-1.496094l-.191406-.085937s-.007813 0-.007813-.007813l-175.800781-79.90625c-.03125-.015624-.066406-.007812-.089844-.023437-.949218-.414063-1.992187-.65625-3.09375-.671875-.082031 0-.160156 0-.25 0-1.101562.015625-2.144531.257812-3.09375.671875-.03125.015625-.066406.007813-.089844.023437l-175.808593 79.90625s-.007813 0-.007813.007813l-.191406.085937c-.816406.367188-1.519531.898438-2.152344 1.496094-.175781.167969-.3125.367188-.480468.550782-.453126.523437-.847657 1.089843-1.152344 1.714843-.117188.246094-.238282.480469-.335938.734375-.335937.886719-.566406 1.808594-.566406 2.785156v192c0 .09375.0390625.191407.0390625.289063.0078125.238281.0742185.460937.1054685.703125.09375.75.289063 1.457031.574219 2.136719.066406.140625.050781.292969.121094.4375.0625.136719.175781.234375.25.359375.183594.328125.40625.625.636718.929687.242188.3125.480469.609375.753907.871094.246093.234375.511719.433594.785156.640625.335937.25.679687.480469 1.046875.671875.128906.074219.230469.175781.367188.230469l176 80c.03125.019531.0625.011718.089843.019531 1 .445313 2.078125.710937 3.230469.710937s2.230469-.265624 3.214844-.695312c.03125-.015625.066406-.007812.089844-.015625l176-80c.136718-.066406.238281-.167969.367187-.234375.367187-.191406.710937-.421875 1.046875-.671875.273438-.199219.546875-.398437.785156-.640625.28125-.261719.519532-.558594.753906-.871094.230469-.304687.453126-.601562.636719-.925781.074219-.128906.183594-.226563.25-.363281.070313-.144532.054688-.292969.121094-.4375.292969-.679688.476563-1.394532.574219-2.136719.03125-.242187.097656-.464844.105468-.703125.015626-.113281.054688-.210938.054688-.304688v-192c0-.976562-.230469-1.898437-.558594-2.785156-.097656-.253906-.21875-.488281-.335937-.726562zm-351.105469 15.933594 48 21.816406v120.816406l-48 24zm168-19.644532 86.71875 39.015625-86.71875 39.414063-86.726562-39.414063zm104 161.964844-96 41.554688v-111.144532l96.070312-43.671875zm-208-113.230469 96 43.640625v111.144532l-96-41.554688zm-7.761719 127.3125 103.761719 44.910157v45.839843l-149.425781-67.917969zm119.761719 44.910157 103.761719-44.910157 45.671875 22.832031-149.433594 67.917969zm112-58.679688.070312-120.847656 47.929688-21.785156v166.632812zm-10.992188-133.398438c-.03125.015626-.0625.03125-.097656.039063l-2.789062 1.273437-98.121094-44.144531v-46.402343l148.664062 67.578124zm-117.007812-89.234374v46.402343l-98.128906 44.152344-50.542969-22.976563zm0 0" fill="#007aff"/></svg>