<svg height="368pt" viewBox="0 0 368 368" width="368pt" xmlns="http://www.w3.org/2000/svg"><path d="m184 136c-97.199219 0-176-28.640625-176-64v224c0-35.359375 78.800781-64 176-64s176 28.640625 176 64v-224c0 35.359375-78.800781 64-176 64zm0 0" fill="#cce4ff"/><path d="m184 0c-89.199219 0-184 25.230469-184 72v224c0 46.769531 94.800781 72 184 72s184-25.230469 184-72v-224c0-46.769531-94.800781-72-184-72zm0 16c99 0 168 29.511719 168 56s-69 56-168 56-168-29.511719-168-56 69-56 168-56zm168 86.785156v162.429688c-30.726562-26.949219-100.945312-41.214844-168-41.214844s-137.273438 14.265625-168 41.214844v-162.429688c30.726562 26.949219 100.945312 41.214844 168 41.214844s137.273438-14.265625 168-41.214844zm-168 249.214844c-99 0-168-29.511719-168-56s69-56 168-56 168 29.511719 168 56-69 56-168 56zm0 0" fill="#007aff"/></svg>