<svg height="368pt" viewBox="0 0 368 368" width="368pt" xmlns="http://www.w3.org/2000/svg"><path d="m264 103.992188-80-32v256l80 32zm0 0" fill="#cce4ff"/><path d="m104 103.992188-96-32v256l96 32zm0 0" fill="#cce4ff"/><path d="m5.472656 335.585938 96 32c.65625.214843 1.335938.277343 2.015625.324218.152344.011719.289063.074219.433594.074219.023437-.007813.046875.007813.078125.007813.9375 0 1.847656-.207032 2.726562-.527344.082032-.03125.160157-.015625.242188-.039063l77.03125-30.816406 77.03125 30.816406c.082031.03125.167969.015625.25.046875.839844.304688 1.71875.496094 2.613281.503906.035157 0 .074219.015626.105469.015626.832031 0 1.648438-.144532 2.425781-.398438.03125-.007812.070313-.007812.101563-.019531l96-32c3.273437-1.078125 5.472656-4.132813 5.472656-7.582031v-256c0-.097657-.046875-.175782-.054688-.273438-.035156-.878906-.210937-1.71875-.503906-2.511719-.113281-.296875-.257812-.550781-.402344-.824219-.296874-.574218-.648437-1.09375-1.070312-1.582031-.207031-.25-.417969-.472656-.65625-.6875-.503906-.457031-1.074219-.816406-1.6875-1.136719-.242188-.121093-.441406-.28125-.695312-.382812-.074219-.035156-.128907-.089844-.203126-.113281l-176-64c-1.765624-.640625-3.703124-.640625-5.46875 0l-176 64c-.074218.023437-.128906.078125-.203124.113281-.246094.09375-.453126.253906-.6875.382812-.613282.320313-1.183594.679688-1.6875 1.136719-.238282.214844-.441407.445313-.65625.6875-.421876.488281-.777344 1.015625-1.070313 1.589844-.144531.273437-.289063.53125-.402344.824219-.304687.800781-.4804685 1.640625-.503906 2.519531 0 .082031-.046875.160156-.046875.257813v256c0 3.449218 2.199219 6.503906 5.472656 7.59375zm10.527344-252.488282 80 26.664063v239.132812l-80-26.664062zm240 26.308594v238.769531l-64-25.601562v-238.765625zm-80 213.167969-64 25.601562v-238.769531l64-25.597656zm96 26.320312v-239.132812l80-26.664063v239.132813zm-88-332.390625 151.6875 55.160156-71.441406 23.816407-77.132813-30.855469-.144531-.058594c-.953125-.382812-1.960938-.574218-2.96875-.574218s-2.015625.191406-2.96875.566406l-.144531.058594-77.132813 30.855468-71.441406-23.816406zm0 0" fill="#007aff"/></svg>