<svg height="368pt" viewBox="0 0 368 368" width="368pt" xmlns="http://www.w3.org/2000/svg"><path d="m184 72c-61.839844 0-112 50.160156-112 112v160c0-61.839844 50.160156-112 112-112s112 50.160156 112 112v-160c0-61.839844-50.160156-112-112-112zm0 0" fill="#cce4ff"/><path d="m184 0c-101.457031 0-184 82.535156-184 184v176c0 4.425781 3.585938 8 8 8h64c4.414062 0 8-3.574219 8-8v-16c0-57.34375 46.65625-104 104-104s104 46.65625 104 104v16c0 4.425781 3.585938 8 8 8h64c4.414062 0 8-3.574219 8-8v-176c0-101.464844-82.542969-184-184-184zm-120 352h-48v-80h48zm16-67.617188v-100.382812c0-54.640625 42.390625-99.480469 96-103.59375v144c-41.078125 2.730469-76.527344 26.144531-96 59.976562zm112-59.976562v-144c53.609375 4.113281 96 48.953125 96 103.59375v100.382812c-19.472656-33.832031-54.921875-57.246093-96-59.976562zm112 127.59375v-80h48v80zm48-152v56h-48v-72c0-66.167969-53.832031-120-120-120s-120 53.832031-120 120v72h-48v-72c0-92.632812 75.359375-168 168-168s168 75.367188 168 168zm0 0" fill="#007aff"/></svg>