<svg height="368pt" viewBox="0 0 368 368" width="368pt" xmlns="http://www.w3.org/2000/svg"><path d="m264 360 96-96v-160l-96 96zm0 0" fill="#cce4ff"/><path d="m104 360c43.359375 0 80-28.71875 91.839844-68.160156 1.359375-4.238282 2.320312-8.640625 3.039062-13.199219.082032-.5625.160156-1.199219.242188-1.761719.238281-1.4375.398437-2.878906.480468-4.320312.160157-1.117188.238282-2.320313.238282-3.4375.082031-1.679688.160156-3.441406.160156-5.121094v-128l-4.160156-4.160156c-11.839844 39.441406-48.480469 68.160156-91.839844 68.160156-53.039062 0-96-42.960938-96-96v160c0 53.039062 42.960938 96 96 96zm0 0" fill="#cce4ff"/><path d="m365.648438 98.335938-95.992188-95.992188c-3-3-8.3125-3-11.3125 0l-59.414062 59.417969c-16.449219-36.898438-53.769532-61.761719-94.929688-61.761719-57.34375 0-104 46.65625-104 104v160c0 57.34375 46.65625 104 104 104 41.199219 0 78.542969-24.902344 94.9375-61.753906l59.40625 59.410156c.769531.769531 1.664062 1.351562 2.632812 1.742188.96875.402343 1.992188.601562 3.023438.601562s2.0625-.207031 3.039062-.609375c.007813 0 .015626 0 .023438-.007813.90625-.375 1.664062-.933593 2.351562-1.574218.074219-.066406.171876-.089844.242188-.160156l96-96c1.503906-1.488282 2.34375-3.519532 2.34375-5.648438v-160c0-1.039062-.207031-2.078125-.617188-3.054688-.40625-.984374-.992187-1.867187-1.734374-2.609374zm-101.648438-79.023438 84.6875 84.6875-84.6875 84.6875-58.335938-58.335938c-.007812-.007812-.007812-.007812-.015624-.015624l-26.335938-26.335938zm-160-3.3125c36.953125 0 70.238281 23.65625 82.648438 58.039062l-24.304688 24.304688c-1.503906 1.496094-2.34375 3.535156-2.34375 5.65625s.839844 4.160156 2.34375 5.65625l24.304688 24.304688c-12.410157 34.382812-45.695313 58.039062-82.648438 58.039062-48.519531 0-88-39.480469-88-88s39.480469-88 88-88zm0 336c-48.519531 0-88-39.480469-88-88v-104.832031c18.425781 29.28125 50.9375 48.832031 88 48.832031 36.128906 0 69.296875-19.167969 88-48.792969v104.792969c0 1.550781-.078125 3.183594-.160156 5.121094 0 .765625-.0625 1.574218-.222656 3.007812-.066407 1.152344-.191407 2.285156-.425782 3.640625l-.222656 1.679688c-.570312 3.550781-1.28125 6.640625-2.082031 9.527343-.238281.855469-.429688 1.703126-.710938 2.566407-11.03125 36.777343-45.65625 62.457031-84.175781 62.457031zm100.984375-63.265625c.710937-2.839844 1.320313-5.6875 1.734375-8.527344.015625-.109375.050781-.191406.066406-.304687 0-.007813 0-.015625 0-.023438.007813-.039062.015625-.085937.023438-.125l.199218-1.539062c.289063-1.742188.488282-3.480469.511719-4.535156.207031-1.488282.320313-3.0625.3125-4.167969.089844-1.824219.167969-3.703125.167969-5.511719v-108.6875l48 48v137.375l-51.167969-51.167969c.054688-.246093.097657-.542969.152344-.785156zm67.015625 51.953125v-137.375l80-80v137.375zm0 0" fill="#007aff"/></svg>