<svg height="368pt" viewBox="0 0 368.004 368" width="368pt" xmlns="http://www.w3.org/2000/svg"><g fill="#cce4ff"><path d="m184.003906 135.992188v96l170.636719-42.640626 5.363281-5.359374-5.363281-5.359376zm0 0"/><path d="m184.003906 359.992188v-128l-170.640625-42.640626zm0 0"/><path d="m13.363281 178.632812 170.640625-42.640624v-128zm0 0"/></g><path d="m189.664062 2.34375c-.734374-.742188-1.621093-1.328125-2.613281-1.734375-1.953125-.808594-4.152343-.808594-6.113281 0-.984375.40625-1.871094 1-2.609375 1.734375l-175.980469 175.992188c-3.128906 3.128906-3.128906 8.183593 0 11.3125l175.992188 175.992187c.734375.742187 1.621094 1.328125 2.605468 1.734375.976563.410156 2.015626.617188 3.058594.617188 1.039063 0 2.078125-.207032 3.054688-.617188.984375-.40625 1.871094-.992188 2.605468-1.734375l175.992188-175.992187c3.128906-3.128907 3.128906-8.183594 0-11.3125zm-13.660156 219.410156-151.105468-37.761718 151.105468-37.761719zm16-75.523437 151.101563 37.761719-151.101563 37.761718zm0-16.476563v-102.449218l136.566406 136.566406zm-16 0-136.570312 34.125 136.570312-136.574218zm0 108.476563v102.449219l-136.570312-136.574219zm16 0 136.566406-34.125-136.566406 136.574219zm0 0" fill="#007aff"/></svg>