<svg height="368pt" viewBox="0 0 368 368" width="368pt" xmlns="http://www.w3.org/2000/svg"><path d="m7.96875 360 176-96 176 96-176-352zm0 0" fill="#cce4ff"/><path d="m367.664062 357.976562c-.054687-.207031-.136718-.382812-.207031-.585937-.113281-.328125-.183593-.65625-.335937-.964844l-176-352c-.34375-.691406-.792969-1.289062-1.3125-1.800781-1.457032-1.59375-3.511719-2.625-5.839844-2.625s-4.386719 1.03125-5.839844 2.617188c-.519531.511718-.96875 1.109374-1.3125 1.796874l-176 352c-.152344.3125-.226562.648438-.335937.96875-.074219.203126-.152344.386719-.207031.585938-.226563.871094-.320313 1.75-.2500005 2.640625.015625.175781.0625.351563.0898435.527344.117188.808593.359375 1.589843.726563 2.34375.054687.113281.046875.230469.105468.34375.023438.046875.078126.078125.101563.128906.046875.078125.066406.167969.113281.246094.449219.722656 1.023438 1.320312 1.65625 1.855469.167969.144531.335938.257812.519532.386718.648437.460938 1.34375.832032 2.09375 1.085938.128906.039062.25.113281.378906.152344.695312.199218 1.414062.320312 2.160156.320312h352c.703125 0 1.398438-.097656 2.0625-.273438.136719-.039062.257812-.109374.390625-.160156.523437-.167968 1.035156-.351562 1.503906-.621094.21875-.128906.402344-.304687.609375-.449218.359375-.25.71875-.496094 1.03125-.800782.199219-.191406.351563-.4375.539063-.65625.222656-.269531.476562-.519531.671875-.824218.039062-.0625.054687-.136719.09375-.207032.039062-.0625.089844-.105468.128906-.167968.054688-.113282.046875-.230469.105469-.34375.367187-.753906.605469-1.535156.726562-2.34375.023438-.175782.078125-.351563.085938-.527344.066406-.898438-.023438-1.777344-.253907-2.648438zm-191.695312-98.730468-149.433594 81.515625 149.433594-298.875zm8 13.867187 144.621094 78.886719h-289.246094zm8-13.867187v-217.359375l149.429688 298.875zm0 0" fill="#007aff"/></svg>