<svg height="367pt" viewBox="0 0 367 367.99615" width="367pt" xmlns="http://www.w3.org/2000/svg"><path d="m168.496094 7.996094-39.597656 217.921875-.160157.878906-12.082031 66.160156-.078125.398438-12.082031 66.640625 256-64-36.558594-54.878906-36.558594-54.800782zm0 0" fill="#cce4ff"/><path d="m294.035156 181.875s-.007812-.007812-.007812-.007812l-118.875-178.3125c-.0625-.09375-.167969-.160157-.230469-.253907-.152344-.214843-.351563-.382812-.527344-.585937-.496093-.558594-1.046875-1.03125-1.671875-1.421875-.128906-.082031-.207031-.21875-.34375-.289063-.105468-.054687-.21875-.046875-.3125-.105468-.808594-.40625-1.65625-.695313-2.558594-.8125005-.066406-.0117187-.121093-.0429687-.1875-.0507813-.796874-.0703124-1.621093-.03906245-2.445312.1289058-.121094.023438-.21875.097657-.328125.121094-.257813.0625-.480469.183594-.730469.269532-.65625.242187-1.261718.539062-1.824218.929687-.238282.167969-.460938.328125-.679688.519531-.613281.535156-1.144531 1.144532-1.574219 1.847656-.0625.105469-.167969.160157-.222656.265626l-99.433594 179.015624c0 .007813-.007812.007813-.015625.015626l-30.320312 54.488281v.015625l-30.238282 54.472656c-2.027343 3.640625-.914062 8.222656 2.550782 10.535156l96 64c.328125.214844.6875.320313 1.023437.480469.253907.128906.496094.261719.769531.359375.871094.296875 1.75.496094 2.636719.496094h.007813c.074218 0 .152344-.023438.226562-.023438.574219-.015625 1.152344-.074218 1.710938-.214844l256-64c2.519531-.625 4.585937-2.449218 5.519531-4.875.9375-2.421874.640625-5.160156-.808594-7.320312l-36.558593-54.878906zm-19.609375-.566406-135.449219 33.847656 33.847657-186.238281zm-151.375 32.078125-43.410156-28.917969 72.335937-130.242188zm-51.21875-14.886719 48.089844 32.03125-9.023437 49.433594-61.578126-41.007813zm64.011719 33.929688 148.007812-36.984376 27.132813 40.664063-184.222656 46.078125zm-94.320312 20.558593 66.238281 44.113281-8.96875 49.480469-79.726563-53.144531zm73.0625 96.238281 9.023437-49.765624 196.800781-49.226563 27.144532 40.753906zm0 0" fill="#007aff"/></svg>