<svg height="368pt" viewBox="0 0 368 368" width="368pt" xmlns="http://www.w3.org/2000/svg"><path d="m184 8v12.078125c65.601562 25.523437 112 89.363281 112 163.921875s-46.398438 138.398438-112 163.921875v12.078125c97.199219 0 176-78.800781 176-176s-78.800781-176-176-176zm0 0" fill="#cce4ff"/><path d="m232 184c0 26.507812-21.492188 48-48 48s-48-21.492188-48-48 21.492188-48 48-48 48 21.492188 48 48zm0 0" fill="#cce4ff"/><path d="m184 0c-101.457031 0-184 82.542969-184 184s82.542969 184 184 184c101.464844 0 184-82.542969 184-184s-82.535156-184-184-184zm0 144c22.054688 0 40 17.945312 40 40s-17.945312 40-40 40-40-17.945312-40-40 17.945312-40 40-40zm8 95.359375c27.089844-3.902344 48-27.207031 48-55.359375s-20.910156-51.457031-48-55.359375v-96.410156c57.871094 27.488281 96 87.042969 96 151.769531s-38.128906 124.28125-96 151.769531zm-176-55.359375c0-89.9375 71.089844-163.375 160-167.59375v112.234375c-27.097656 3.902344-48 27.207031-48 55.359375s20.902344 51.457031 48 55.359375v112.234375c-88.910156-4.21875-160-77.65625-160-167.59375zm180.078125 167.382812c64.914063-29.511718 107.921875-95.488281 107.921875-167.382812s-43.007812-137.871094-107.921875-167.382812c87 6.230468 155.921875 78.824218 155.921875 167.382812s-68.921875 161.152344-155.921875 167.382812zm0 0" fill="#007aff"/></svg>