<svg height="368pt" viewBox="0 0 368 368" width="368pt" xmlns="http://www.w3.org/2000/svg"><path d="m184 104c-26 0-50.640625 2.558594-72.800781 7.199219-4.640625 22.160156-7.199219 46.800781-7.199219 72.800781 0 97.199219 35.839844 176 80 176 97.199219 0 176-78.800781 176-176 0-44.160156-78.800781-80-176-80zm0 0" fill="#cce4ff"/><path d="m184 8c-97.199219 0-176 78.800781-176 176 0-32.398438 42.320312-60.238281 103.199219-72.800781 12.5625-60.878907 40.402343-103.199219 72.800781-103.199219zm0 0" fill="#cce4ff"/><path d="m184 0c-101.457031 0-184 82.542969-184 184s82.542969 184 184 184c101.464844 0 184-82.542969 184-184s-82.535156-184-184-184zm162.496094 142.089844c-30.679688-27.65625-91.25-46.089844-162.496094-46.089844-21.617188 0-42.464844 1.808594-62.289062 5.175781 12.882812-51.40625 37.226562-85.175781 62.289062-85.175781 78.144531 0 143.800781 53.703125 162.496094 126.089844zm-204.503906-120.5625c-16.199219 17.984375-29.335938 46.5625-37.480469 82.984375-36.433594 8.144531-65 21.28125-82.984375 37.480469 15.25-58.878907 61.585937-105.214844 120.464844-120.464844zm-125.992188 162.472656c0-25.054688 33.761719-49.40625 85.175781-62.289062-3.367187 19.832031-5.175781 40.679687-5.175781 62.289062 0 71.246094 18.441406 131.816406 46.089844 162.496094-72.386719-18.695313-126.089844-84.351563-126.089844-162.496094zm168 168c-39.023438 0-72-76.9375-72-168 0-23.015625 2.105469-45.113281 6.089844-65.910156 20.78125-3.984375 42.886718-6.089844 65.910156-6.089844 91.0625 0 168 32.976562 168 72 0 92.640625-75.367188 168-168 168zm0 0" fill="#007aff"/></svg>