<svg height="368pt" viewBox="0 0 368 368" width="368pt" xmlns="http://www.w3.org/2000/svg"><path d="m264 104-80-32v128l80 32zm0 0" fill="#cce4ff"/><path d="m184 264-80-32v-128l-96-32v224l176 64zm0 0" fill="#cce4ff"/><path d="m367.910156 71.28125c-.078125-.839844-.269531-1.648438-.597656-2.410156-.046875-.109375-.074219-.230469-.128906-.335938-.382813-.800781-.925782-1.511718-1.558594-2.144531-.144531-.144531-.289062-.277344-.449219-.414063-.175781-.152343-.3125-.328124-.503906-.464843-.230469-.167969-.519531-.175781-.761719-.3125-.398437-.230469-.726562-.550781-1.175781-.71875l-176-64c-1.765625-.640625-3.703125-.640625-5.46875 0l-176 64c-.449219.167969-.777344.488281-1.175781.71875-.242188.136719-.539063.144531-.769532.3125-.183593.136719-.328124.3125-.503906.464843-.160156.136719-.304687.261719-.449218.414063-.632813.640625-1.175782 1.34375-1.558594 2.144531-.054688.113282-.082032.226563-.128906.335938-.328126.761718-.527344 1.570312-.601563 2.410156-.015625.160156-.046875.304688-.0546875.460938 0 .089843-.0234375.167968-.0234375.257812v224c0 3.359375 2.105469 6.367188 5.265625 7.519531l176 64c.886719.320313 1.804687.480469 2.734375.480469s1.847656-.160156 2.734375-.480469l176-64c3.160156-1.152343 5.265625-4.160156 5.265625-7.519531v-224c0-.089844-.023438-.167969-.03125-.257812 0-.15625-.039062-.300782-.058594-.460938zm-183.910156-54.769531 151.6875 55.160156-71.429688 23.808594-77.28125-30.914063c-.898437-.351562-1.847656-.511718-2.792968-.535156-.0625 0-.121094-.03125-.183594-.03125s-.121094.03125-.183594.039062c-.945312.023438-1.894531.175782-2.792968.535157l-77.28125 30.914062-71.429688-23.808593zm0 238.871093-58.464844-23.382812 58.464844-23.382812 58.464844 23.382812zm-8-60.796874-64 25.597656v-110.769532l64-25.597656zm16 0v-110.769532l64 25.597656v110.761719zm-176-111.488282 80 26.671875v122.230469c0 .984375.230469 1.910156.566406 2.800781.105469.269531.242188.511719.371094.765625.300781.601563.671875 1.144532 1.109375 1.648438.191406.21875.359375.433594.578125.632812.582031.535156 1.238281.984375 1.976562 1.335938.117188.054687.222657.152344.34375.207031.03125.007813.046876.035156.078126.050781l74.976562 29.972656v79.160157l-160-58.175781zm336 207.300782-160 58.1875v-79.160157l74.976562-29.992187c.03125-.007813.046876-.035156.078126-.050782.128906-.054687.226562-.144531.34375-.207031.738281-.351562 1.394531-.792969 1.976562-1.335937.21875-.199219.386719-.414063.578125-.632813.4375-.503906.808594-1.046875 1.109375-1.648437.128906-.253906.265625-.496094.371094-.765625.335937-.882813.566406-1.808594.566406-2.792969v-122.230469l80-26.671875zm0 0" fill="#007aff"/></svg>