<svg height="368.002pt" viewBox="0 0 368.002 368.002" width="368.002pt" xmlns="http://www.w3.org/2000/svg"><path d="m7.996094 72.003906 64-64 288 287.996094-64 64.003906zm0 0" fill="#cce4ff"/><path d="m77.65625 2.347656c-3.128906-3.128906-8.183594-3.128906-11.3125 0l-64 64c-.121094.117188-.160156.277344-.273438.40625-.484374.550782-.886718 1.152344-1.199218 1.808594-.117188.238281-.246094.464844-.335938.710938-.320312.871093-.535156 1.777343-.535156 2.730468v288c0 4.421875 3.585938 8 8 8h288c.953125 0 1.855469-.21875 2.71875-.53125.25-.085937.472656-.222656.714844-.335937.664062-.320313 1.261718-.71875 1.8125-1.207031.128906-.113282.289062-.152344.410156-.273438l64-64c3.128906-3.125 3.128906-8.183594 0-11.308594zm-61.65625 349.65625v-260.691406l260.6875 260.691406zm280-3.3125-276.6875-276.6875 52.6875-52.691406 276.6875 276.691406zm0 0" fill="#007aff"/></svg>