<svg height="368pt" viewBox="0 0 368.0035 368" width="368pt" xmlns="http://www.w3.org/2000/svg"><path d="m104 56v192c0 26.480469 35.839844 48 80 48s80-21.519531 80-48v-192c0 26.480469-35.839844 48-80 48s-80-21.519531-80-48zm0 0" fill="#cce4ff"/><path d="m184 0c-49.34375 0-88 24.601562-88 56v136h-24c-3.269531 0-6.207031 1.992188-7.429688 5.035156l-64 160c-.984374 2.460938-.679687 5.253906.808594 7.453125 1.488282 2.203125 3.96875 3.511719 6.621094 3.511719h352c2.65625 0 5.136719-1.316406 6.625-3.511719 1.488281-2.191406 1.792969-4.992187.808594-7.453125l-64-160c-1.222656-3.042968-4.160156-5.035156-7.433594-5.035156h-24v-136c0-31.398438-38.652344-56-88-56zm0 16c39.035156 0 72 18.320312 72 40 0 21.683594-32.964844 40-72 40-39.023438 0-72-18.316406-72-40 0-21.679688 32.976562-40 72-40zm-72 72.523438c15.792969 14.277343 41.875 23.476562 72 23.476562 30.121094 0 56.210938-9.199219 72-23.476562v159.476562c0 21.683594-32.964844 40-72 40-39.023438 0-72-18.316406-72-40zm178.585938 119.476562 57.601562 144h-328.371094l57.601563-144h18.582031v40c0 31.402344 38.65625 56 88 56 49.347656 0 88-24.597656 88-56v-40zm0 0" fill="#007aff"/></svg>