<svg height="368pt" viewBox="0 0 368 368.002" width="368pt" xmlns="http://www.w3.org/2000/svg"><path d="m184 8.003906-80 32v128l80 32v-128l80-32zm0 0" fill="#cce4ff"/><path d="m184 264.003906-176-64v96l176 64zm0 0" fill="#cce4ff"/><path d="m367.914062 199.273438c-.082031-.824219-.273437-1.625-.59375-2.375-.054687-.128907-.085937-.265626-.144531-.390626-.390625-.800781-.925781-1.515624-1.558593-2.144531-.144532-.144531-.289063-.265625-.441407-.394531-.199219-.167969-.367187-.375-.582031-.527344-.570312-.398437-1.175781-.703125-1.808594-.933594-.015625-.011718-.023437-.019531-.039062-.027343l-90.746094-32.964844v-119.511719c0-.984375-.230469-1.914062-.558594-2.792968-.105468-.28125-.242187-.519532-.375-.785157-.304687-.589843-.664062-1.128906-1.097656-1.632812-.191406-.222657-.375-.445313-.589844-.648438-.570312-.527343-1.21875-.957031-1.9375-1.300781-.136718-.066406-.25-.167969-.390625-.234375-.027343-.007813-.050781-.03125-.074219-.039063l-80-32c-1.910156-.761718-4.03125-.761718-5.945312 0l-80 32c-.03125.007813-.046875.03125-.078125.046876-.128906.058593-.222656.144531-.34375.207031-.738281.355469-1.390625.792969-1.976563 1.335937-.214843.203125-.382812.417969-.574218.632813-.441406.503906-.808594 1.050781-1.113282 1.648437-.128906.257813-.265624.496094-.367187.769532-.34375.878906-.578125 1.808593-.578125 2.792968v119.519532l-90.726562 32.964843c-.015626.007813-.023438.019531-.03125.027344-.640626.238281-1.257813.542969-1.824219.941406-.226563.152344-.394531.359375-.59375.535157-.144531.121093-.277344.242187-.414063.378906-.640625.640625-1.183594 1.359375-1.578125 2.160156-.054687.117188-.085937.246094-.136719.367188-.316406.75-.519531 1.550781-.5976558 2.382812-.015625.160156-.046875.304688-.0585937.472656-.0078125.082032-.0390625.160156-.0390625.25v96c0 3.367188 2.105469 6.367188 5.265625 7.511719l176 64c.886719.320313 1.808594.488281 2.734375.488281.929688 0 1.847656-.167968 2.738281-.488281l176-64c3.160157-1.144531 5.261719-4.144531 5.261719-7.511719v-96c0-.089844-.03125-.167968-.03125-.257812-.007812-.160156-.039062-.3125-.054688-.472656zm-183.914062 56.214843-152.589844-55.484375 68.863282-25.019531c.253906.136719.480468.335937.75.441406l80 32c.960937.390625 1.96875.578125 2.976562.578125s2.015625-.1875 2.976562-.570312l80-32c.28125-.113282.496094-.304688.753907-.441406l68.855469 25.011718zm8-178.070312 64-25.601563v110.769532l-64 25.601562zm-16 110.769531-64-25.601562v-110.769532l64 25.601563zm8-171.570312 58.464844 23.386718-58.464844 23.382813-58.464844-23.382813zm-168 194.808593 160 58.175781v78.976563l-160-58.175781zm336 78.976563-160 58.175781v-78.976563l160-58.175781zm0 0" fill="#007aff"/></svg>