<svg height="368pt" viewBox="0 0 368 368" width="368pt" xmlns="http://www.w3.org/2000/svg"><path d="m72 7.996094-64 32 96 42.640625 96 42.71875 96 42.640625v192l64-32v-192zm0 0" fill="#cce4ff"/><path d="m368 136.140625v-.144531c0-.898438-.199219-1.753906-.480469-2.570313-.070312-.207031-.152343-.398437-.238281-.597656-.34375-.785156-.777344-1.527344-1.359375-2.167969-.042969-.050781-.066406-.105468-.113281-.152344-.472656-.496093-1.007813-.945312-1.609375-1.3125-.214844-.136718-.445313-.191406-.671875-.304687-.101563-.054687-.167969-.152344-.28125-.199219l-288-128c-2.183594-.96875-4.6875-.921875-6.832032.152344l-64 32c-.09375.046875-.140624.136719-.238281.183594-.175781.09375-.367187.152344-.542969.261718-.617187.402344-1.152343.898438-1.632812 1.433594-.097656.113282-.160156.230469-.246094.351563-.496094.632812-.890625 1.328125-1.179687 2.082031-.070313.175781-.148438.34375-.207031.527344-.214844.734375-.367188 1.511718-.367188 2.3125v192c0 3.167968 1.855469 6.023437 4.753906 7.3125l192.023438 85.34375c.070312.03125.132812.0625.207031.09375l95.757813 42.5625c.121093.054687.257812.03125.378906.078125.910156.351562 1.863281.601562 2.855468.609375h.015626c.6875 0 1.375-.113282 2.0625-.296875.210937-.054688.402343-.144531.601562-.214844.304688-.105469.617188-.183594.910156-.328125l64-32c2.722656-1.363281 4.433594-4.128906 4.433594-7.160156zm-295.800781-119.304687 269.058593 119.582031-45.457031 22.730469-188.578125-83.808594c-.070312-.03125-.132812-.066406-.207031-.097656l-80.273437-35.671876zm39.800781 174.136718 80 35.550782v78.480468l-80-35.570312zm0-17.515625v-78.484375l80 35.550782v78.488281zm-96-121.148437 80 35.558594v78.488281l-80-35.5625zm192 85.328125 80 35.558593v78.488282l-80-35.554688zm-192 10.671875 80 35.550781v78.464844l-80-35.53125zm192 163.8125v-78.476563l80 35.550781v78.488282zm144 10.929687-48 24v-174.105469l48-24zm0 0" fill="#007aff"/></svg>